<?xml version="1.0" standalone="no"?>
<!DOCTYPE svg PUBLIC "-//W3C//DTD SVG 20010904//EN"
 "http://www.w3.org/TR/2001/REC-SVG-20010904/DTD/svg10.dtd">
<svg version="1.0" xmlns="http://www.w3.org/2000/svg"
 width="225.000000pt" height="225.000000pt" viewBox="0 0 225.000000 225.000000"
 preserveAspectRatio="xMidYMid meet">

<g transform="translate(0.000000,225.000000) scale(0.100000,-0.100000)"
fill="#000000" stroke="none">
<path d="M980 2140 c-19 -11 -53 -29 -75 -40 -22 -11 -51 -30 -65 -42 -14 -13
-45 -36 -69 -53 -52 -35 -132 -146 -160 -221 -32 -84 -44 -209 -31 -339 5 -62
7 -120 4 -129 -8 -22 24 -158 41 -170 9 -7 16 -35 19 -75 3 -42 11 -72 24 -90
10 -14 27 -62 37 -106 9 -44 29 -105 43 -135 20 -43 26 -73 27 -136 4 -126 17
-245 24 -209 l6 30 30 -48 c17 -26 33 -47 38 -47 4 0 7 -7 7 -16 0 -8 6 -22
13 -29 28 -32 35 -43 41 -63 4 -12 12 -22 17 -22 5 0 9 -17 9 -38 0 -21 6 -46
14 -57 8 -11 20 -39 27 -63 l12 -43 144 2 c144 1 145 1 178 30 18 16 37 29 43
29 5 0 12 7 16 15 3 8 15 15 26 15 13 0 20 7 20 19 0 13 16 25 51 41 29 12 62
34 74 48 55 65 65 74 65 62 0 -9 6 -7 20 5 13 12 20 29 18 44 -2 20 -15 29
-72 52 -126 51 -146 86 -146 254 0 93 4 123 19 153 10 20 26 61 36 91 13 39
30 66 62 95 76 69 103 149 103 301 0 46 6 112 14 147 22 95 30 235 16 293 -6
27 -22 64 -36 82 -15 20 -24 46 -25 70 -1 68 -21 106 -71 133 -24 14 -77 45
-116 69 -46 27 -79 41 -92 38 -11 -3 -18 -1 -15 3 5 9 -93 45 -101 38 -2 -3 7
-17 22 -33 15 -16 19 -25 10 -22 -28 11 -17 -7 39 -62 53 -53 80 -98 30 -51
-14 13 -25 20 -25 15 0 -4 -8 -1 -17 7 -10 9 -28 21 -40 27 -20 10 -22 9 -16
-6 5 -14 0 -12 -28 7 -30 21 -32 21 -16 3 11 -13 14 -23 8 -27 -5 -4 -12 -2
-16 4 -3 5 -11 10 -16 10 -6 0 -7 -5 -3 -12 4 -7 -7 -2 -24 11 -39 27 -66 18
-31 -11 l24 -19 -25 12 c-45 22 -109 86 -97 98 14 14 34 14 50 1 47 -39 91
-69 95 -65 8 7 -28 45 -63 66 l-30 19 25 1 c23 0 23 1 5 9 -14 6 -16 9 -4 9
14 1 78 -25 122 -49 21 -13 22 -6 1 14 -8 9 -10 16 -4 16 7 0 8 6 0 19 -9 18
-24 24 -93 37 -34 6 -55 -5 -36 -17 25 -15 -13 -10 -41 6 -32 18 -29 18 -70
-5z m15 -112 c14 -6 25 -19 25 -29 0 -10 5 -21 12 -25 7 -4 8 -3 4 4 -5 8 -1
10 9 5 12 -4 13 -8 5 -13 -19 -12 -4 -27 45 -46 25 -9 44 -19 41 -21 -7 -8
-116 28 -111 37 3 4 -7 11 -22 15 -21 5 -24 8 -13 15 12 7 12 10 -2 15 -9 4
-24 18 -33 31 -13 21 -13 24 -1 24 8 0 27 -5 41 -12z m-106 -51 c8 -12 10 -22
4 -28 -12 -12 -43 -1 -43 14 0 7 4 7 12 -1 24 -24 31 -11 7 14 -15 16 -19 24
-9 22 8 -2 21 -11 29 -21z m-55 -11 c4 -15 24 -36 49 -51 29 -18 34 -25 17
-20 -24 6 -24 5 -6 -9 18 -14 66 -22 105 -17 7 2 10 -2 7 -7 -3 -5 10 -13 29
-16 38 -7 48 -26 14 -26 -33 0 -112 22 -139 39 -14 9 -35 28 -48 43 -15 17
-29 24 -42 21 -14 -4 -20 0 -20 11 0 23 4 31 14 28 5 -2 6 4 3 13 -4 8 -3 15
2 15 5 0 12 -11 15 -24z m-43 -61 c7 -13 3 -12 -10 5 -11 14 -21 30 -21 35 0
11 14 -7 31 -40z m254 5 c3 -6 -1 -7 -9 -4 -18 7 -21 14 -7 14 6 0 13 -4 16
-10z m-125 -96 c0 -9 -37 15 -51 33 -10 12 -5 11 19 -6 17 -12 32 -24 32 -27z
m325 -57 c76 -1 110 -6 113 -14 2 -7 20 -13 40 -13 81 -1 119 -82 93 -200 -5
-25 -7 -55 -4 -68 5 -23 5 -23 -58 -16 -138 14 -198 12 -221 -7 -11 -11 -25
-19 -29 -19 -5 0 -11 -11 -15 -25 -5 -22 -11 -25 -53 -25 -47 0 -81 13 -68 26
14 14 -59 47 -114 51 -40 4 -65 0 -87 -11 -18 -9 -32 -18 -32 -20 0 -2 28 -4
62 -5 67 -2 94 -11 37 -12 -26 0 -29 -2 -15 -8 15 -6 4 -11 -43 -21 -48 -10
-65 -10 -70 -1 -5 7 -16 9 -27 5 -11 -4 -16 -3 -11 2 5 5 34 12 65 16 38 4 23
5 -45 3 l-102 -4 13 32 c8 18 17 53 20 80 4 26 13 57 19 70 21 39 90 94 137
108 25 7 60 21 78 31 18 10 47 18 65 18 18 0 37 4 43 9 12 12 76 29 90 24 6
-2 60 -5 119 -6z m64 -361 c-2 -2 -35 -6 -74 -9 -42 -3 -58 -2 -40 3 30 8 122
13 114 6z m-666 -51 c-7 -21 -13 -19 -13 6 0 11 4 18 10 14 5 -3 7 -12 3 -20z
m79 0 c-3 -18 0 -25 12 -25 19 0 21 -16 4 -23 -7 -3 20 -4 61 -2 40 2 75 5 77
7 1 2 32 1 69 -2 37 -3 70 -1 75 4 16 16 12 -31 -5 -65 -9 -16 -27 -34 -41
-39 -32 -13 -195 -13 -227 -1 -37 14 -61 104 -41 155 10 25 22 19 16 -9z m410
-32 c8 -10 18 -31 22 -47 9 -38 55 -116 68 -116 7 0 7 4 0 13 -9 10 14 12 117
9 119 -4 130 -3 149 16 16 16 22 18 26 6 3 -8 2 -14 -2 -14 -4 0 -7 -13 -8
-29 -1 -16 -11 -41 -23 -56 -11 -15 -21 -34 -21 -41 0 -15 -69 -54 -95 -54 -9
0 -27 7 -40 16 -24 15 -25 15 -25 -3 0 -20 -34 -63 -49 -63 -5 0 -11 14 -15
32 -3 18 -13 43 -22 56 l-16 24 -26 -25 c-36 -33 -113 -42 -145 -17 -33 26
-50 12 -47 -41 4 -62 1 -81 -9 -75 -5 4 -11 1 -13 -6 -3 -8 -13 -4 -29 12 -14
14 -33 24 -42 22 -18 -4 -23 18 -8 33 5 6 14 27 19 48 10 35 9 38 -6 32 -9 -4
-32 -9 -49 -12 -18 -3 -33 -11 -33 -18 0 -14 -58 -26 -65 -15 -8 13 -54 17
-58 6 -14 -38 -35 192 -28 292 2 25 19 2 30 -41 17 -68 26 -72 172 -72 81 0
125 -4 122 -10 -2 -5 3 -1 12 10 10 11 29 45 43 75 14 30 30 58 36 62 19 13
42 9 58 -9z m183 -32 c-3 -5 5 -12 17 -14 18 -3 16 -5 -7 -6 -17 0 -35 3 -40
8 -6 5 -23 11 -40 14 -19 2 -10 5 23 6 31 0 51 -3 47 -8z m4 -40 c25 -7 60
-10 83 -6 33 6 39 5 32 -6 -6 -11 -5 -12 8 -2 8 7 18 10 22 6 4 -4 12 -1 17 7
8 11 9 9 4 -10 -4 -14 -14 -31 -23 -37 -22 -18 -193 -17 -236 1 -32 13 -53 46
-42 64 6 10 67 2 135 -17z m-478 -380 c5 9 22 7 71 -9 36 -12 74 -22 86 -22
12 0 22 -4 22 -10 0 -5 7 -10 15 -10 8 0 15 -6 15 -14 0 -8 6 -16 13 -19 7 -3
0 -9 -15 -16 -16 -6 -28 -15 -28 -20 0 -5 12 -17 28 -27 20 -14 42 -17 91 -15
87 3 104 12 140 71 25 41 28 49 12 40 -32 -16 -42 -12 -23 11 23 28 47 40 66
33 19 -7 21 -40 4 -51 -23 -14 -75 -97 -82 -129 -8 -37 -55 -74 -94 -74 -15 0
-33 -5 -40 -12 -9 -9 -18 -9 -37 0 -20 9 -27 9 -31 -1 -4 -11 -16 -11 -59 -4
-30 6 -55 14 -55 19 0 4 -6 8 -13 8 -14 0 -47 35 -47 49 0 5 -7 11 -15 15 -10
3 -15 19 -15 44 0 21 -4 42 -9 48 -14 14 -57 96 -66 124 -7 23 -6 22 25 -9 24
-23 35 -29 41 -20z m562 9 c-5 -20 -21 -36 -28 -28 -5 4 23 48 30 48 2 0 1 -9
-2 -20z m-319 -50 c-7 -7 -19 -7 -35 -1 -23 9 -22 10 11 10 23 1 31 -2 24 -9z"/>
<path d="M948 1853 c7 -3 16 -2 19 1 4 3 -2 6 -13 5 -11 0 -14 -3 -6 -6z"/>
<path d="M910 1269 c-13 -6 -43 -7 -65 -4 -29 5 -36 3 -25 -4 21 -15 79 -13
115 4 34 15 13 19 -25 4z"/>
<path d="M1173 1136 c4 -10 7 -22 7 -27 0 -5 7 -9 15 -9 8 0 17 -11 21 -25 5
-22 7 -23 22 -9 10 10 12 18 5 22 -6 4 -13 17 -17 30 -4 12 -11 22 -16 22 -5
0 -16 3 -26 7 -14 5 -16 3 -11 -11z"/>
<path d="M965 1110 c-3 -5 -1 -10 4 -10 6 0 11 5 11 10 0 6 -2 10 -4 10 -3 0
-8 -4 -11 -10z"/>
</g>
</svg>
